<svg width="20" height="21" viewBox="0 0 20 21" fill="none" xmlns="http://www.w3.org/2000/svg">
<path d="M13.3234 18.4404V16.7738C13.3234 15.8897 12.9722 15.0419 12.3471 14.4167C11.722 13.7916 10.8741 13.4404 9.99007 13.4404H4.99007C4.10602 13.4404 3.25817 13.7916 2.63305 14.4167C2.00793 15.0419 1.65674 15.8897 1.65674 16.7738V18.4404" stroke="#00A63E" stroke-width="1.66667" stroke-linecap="round" stroke-linejoin="round"/>
<path d="M7.49007 10.1071C9.33102 10.1071 10.8234 8.61471 10.8234 6.77376C10.8234 4.93281 9.33102 3.44043 7.49007 3.44043C5.64912 3.44043 4.15674 4.93281 4.15674 6.77376C4.15674 8.61471 5.64912 10.1071 7.49007 10.1071Z" stroke="#00A63E" stroke-width="1.66667" stroke-linecap="round" stroke-linejoin="round"/>
<path d="M18.3237 18.4405V16.7738C18.3232 16.0353 18.0774 15.3178 17.6249 14.7341C17.1724 14.1504 16.5388 13.7335 15.8237 13.5488" stroke="#00A63E" stroke-width="1.66667" stroke-linecap="round" stroke-linejoin="round"/>
<path d="M13.3237 3.54883C14.0407 3.73241 14.6763 4.14941 15.1301 4.73409C15.5839 5.31876 15.8303 6.03785 15.8303 6.77799C15.8303 7.51814 15.5839 8.23723 15.1301 8.8219C14.6763 9.40658 14.0407 9.82358 13.3237 10.0072" stroke="#00A63E" stroke-width="1.66667" stroke-linecap="round" stroke-linejoin="round"/>
</svg>
